
mtllib chair.mtl

#
# object Box01
#

v  -6.9630 43.6667 14.4795
v  11.6447 43.6667 14.4795
v  13.5956 43.6667 12.5286
v  11.6447 43.6667 -12.9833
v  13.5956 43.6667 -11.0324
v  -6.9630 43.6667 -12.9833
v  -8.9139 43.6667 -12.9015
v  -8.9139 43.6667 14.3989
v  -14.1723 0.4442 17.0146
v  -0.5212 2.1944 3.8857
v  -15.2421 2.2451 17.0148
v  2.7613 2.1665 1.3741
v  16.0145 2.3129 15.7000
v  16.1307 0.4163 14.4471
v  0.3083 2.2094 -2.3309
v  15.4476 2.2867 -15.4348
v  14.3312 0.4592 -15.5184
v  -3.2812 2.1816 0.3704
v  -16.3900 2.6423 -14.8882
v  -16.4023 0.4314 -12.7512
v  1.2626 22.4451 2.7863
v  -1.4800 22.4449 2.8405
v  -1.0118 13.4528 2.9697
v  0.8533 13.4531 2.8567
v  2.9116 22.4447 -0.0921
v  2.8706 22.4446 1.6292
v  2.5261 13.4522 1.4415
v  2.6115 13.4523 0.1401
v  -1.4782 22.4449 -1.3461
v  1.2216 22.4450 -1.3311
v  0.7678 13.4530 -1.4459
v  -1.0082 13.4528 -1.4771
v  -3.1964 22.4447 1.5750
v  -3.1982 22.4447 -0.0771
v  -2.9144 13.4524 0.1713
v  -2.9107 13.4524 1.3285
v  -2.4400 39.5725 4.7341
v  -2.0744 39.5725 2.9027
v  1.8028 39.5725 2.9027
v  2.1683 39.5725 4.7341
v  14.1156 39.5725 15.2483
v  13.4266 39.5725 17.0737
v  -8.7449 39.5725 17.0737
v  -9.4338 39.5725 15.2483
v  2.1683 39.5725 -3.2379
v  14.1156 39.5725 -13.7521
v  16.1898 39.5725 -12.8143
v  3.4934 39.5725 -0.4028
v  3.4934 39.5725 1.8990
v  16.1898 39.5725 14.3105
v  1.8028 39.5725 -1.4065
v  -2.0744 39.5725 -1.4065
v  -2.4400 39.5725 -3.2379
v  -9.4338 39.5725 -13.7521
v  -8.7449 39.5725 -15.6713
v  13.4266 39.5725 -15.5775
v  -11.5081 39.5725 16.8506
v  -3.7650 39.5725 1.8990
v  -3.7650 39.5725 -0.4028
v  -11.5081 39.5725 -15.6489
v  13.4266 41.7667 17.0737
v  -8.7449 41.7667 17.0737
v  16.1898 41.7667 -12.8143
v  16.1898 41.7667 14.3105
v  -8.7449 41.7667 -15.6713
v  13.4266 41.7667 -15.5775
v  -17.5427 90.3520 -13.7583
v  -17.5427 90.3520 16.0331
v  -15.5741 90.3498 16.0331
v  -15.5741 90.3498 -13.7583
v  -3.2734 2.1944 1.1335
v  -16.4023 0.4442 14.7311
v  -16.1842 2.4230 16.1584
v  -16.4023 0.4442 17.0146
v  -16.2946 1.4211 17.0147
v  -16.3970 1.3902 -15.6072
v  -16.4023 0.4314 -15.5184
v  -0.5135 2.1816 -2.3973
v  -14.5341 0.4314 -15.5184
v  -15.5847 2.2289 -15.6849
v  16.1705 1.3932 -15.4757
v  16.1307 0.4592 -15.5184
v  16.2034 2.1661 -14.5991
v  16.1307 0.4592 -13.6935
v  16.0667 1.4615 16.8575
v  16.1307 0.4163 17.0146
v  2.9432 2.2094 0.3040
v  14.5333 0.4163 17.0146
v  0.4902 2.1665 3.6452
v  2.1747 5.0535 -0.4644
v  7.6324 4.3584 -6.9030
v  1.0767 5.0538 -1.5624
v  -1.2819 5.0255 -1.6289
v  -8.2473 4.2955 -7.5023
v  -2.5128 5.0255 -0.3980
v  -2.5050 5.0383 1.9020
v  -8.0545 4.3123 8.8219
v  -1.2897 5.0383 3.1173
v  1.2586 5.0104 2.8767
v  6.1517 4.4321 6.9439
v  1.9928 5.0104 2.1425
v  0.4036 4.9143 -2.3071
v  3.0530 4.9122 0.2802
v  -3.3891 4.9124 0.3446
v  -0.6108 4.9137 -2.3715
v  -0.6183 4.9137 3.8601
v  -3.3815 4.9124 1.1591
v  2.8766 4.9116 1.3923
v  0.5800 4.9147 3.6269
v  -11.5081 41.7667 16.8506
v  -11.5081 41.7667 -15.6489
v  -11.5081 43.7725 -13.2184
v  -14.9857 39.7778 16.6090
v  -14.9857 39.7778 -15.5146
v  -13.7076 41.5614 16.6090
v  -11.5081 43.7725 14.7465
v  -13.7076 44.1357 14.7999
v  -13.7076 41.5614 -15.5146
v  -18.4106 42.3249 16.2575
v  -18.4106 42.3249 -15.2362
v  -14.9682 42.3211 16.2575
v  -14.9682 45.1417 14.7048
v  -14.9682 42.3211 -15.2362
v  -18.2809 89.0283 16.0331
v  -18.2809 89.0283 -13.7583
v  -14.8385 89.0245 16.0331
v  -14.9682 45.1417 -13.1829
v  -14.8385 89.0245 -13.7583
v  -13.7076 44.1357 -13.1591
# 129 vertices

vn 0.0000 1.0000 -0.0000
vn 0.6196 0.3680 0.6933
vn 0.6555 0.4438 -0.6110
vn -0.6013 0.3990 -0.6923
vn -0.6293 0.5419 0.5570
vn 0.0363 0.0112 0.9993
vn 0.9985 -0.0357 0.0418
vn 0.0103 0.0137 -0.9999
vn -0.9995 -0.0317 0.0019
vn 0.0000 -1.0000 -0.0000
vn 0.0000 0.0000 1.0000
vn 1.0000 0.0000 -0.0000
vn 0.0042 0.0000 -1.0000
vn 0.0011 1.0000 -0.0000
vn -0.6590 0.4864 -0.5737
vn -0.9940 0.1096 -0.0000
vn 0.0000 -0.0001 1.0000
vn -1.0000 0.0056 -0.0000
vn 0.6309 0.3026 -0.7145
vn 0.0000 -0.0922 -0.9957
vn -0.0000 0.0457 -0.9990
vn 0.9991 -0.0425 0.0000
vn 0.9981 0.0611 -0.0000
vn 0.7119 0.3053 0.6325
vn -0.4174 0.6996 0.5799
vn 0.6241 -0.0313 -0.7807
vn 0.0584 0.9966 -0.0581
vn -0.6265 -0.0313 -0.7788
vn -0.0567 0.9968 -0.0567
vn -0.6263 -0.0313 0.7790
vn -0.0580 0.9966 0.0580
vn 0.6167 -0.0310 0.7866
vn 0.0643 0.9959 0.0643
vn 0.0799 -0.9958 -0.0437
vn 0.0000 -0.9912 -0.1321
vn -0.0841 -0.9957 -0.0395
vn 0.0000 -0.9915 -0.1298
vn -0.0459 -0.9960 0.0772
vn -0.1316 -0.9913 -0.0000
vn 0.0827 -0.9957 0.0414
vn 0.0000 -0.9912 0.1322
vn -0.0043 -1.0000 0.0003
vn 0.0140 -0.9999 -0.0076
vn -0.0481 -0.9977 -0.0481
vn -0.0223 -0.9995 0.0223
vn -0.0662 0.9600 0.2722
vn -0.3421 0.7496 0.5667
vn 0.0727 0.9134 -0.4005
vn 0.2489 0.9647 -0.0858
vn 0.7436 -0.0203 -0.6684
vn 0.6433 -0.0329 -0.7649
vn -0.6437 -0.0327 -0.7646
vn -0.7433 -0.0201 -0.6687
vn -0.7434 -0.0202 0.6685
vn -0.6434 -0.0328 0.7648
vn 0.6447 -0.0322 0.7638
vn 0.7427 -0.0198 0.6693
vn -0.6645 0.5017 0.5539
vn 0.6603 0.4639 -0.5906
vn -0.5620 0.4751 -0.6770
vn 0.6755 0.4596 0.5766
vn 0.5728 0.4647 -0.6753
vn 0.5719 0.4740 0.6695
vn -0.6710 0.4937 -0.5532
vn -0.5757 0.4022 0.7119
vn -0.0805 0.0000 0.9968
vn 0.7071 0.0000 0.7071
vn 0.7071 0.0000 -0.7071
vn -0.0081 0.0000 -1.0000
vn 0.0082 -0.0052 1.0000
vn 0.1910 0.0161 0.9815
vn 0.2314 -0.0011 0.9729
vn 0.1117 0.0970 0.9890
vn 0.9993 -0.0351 0.0102
vn 0.9868 -0.0425 0.1565
vn 0.9854 -0.0386 0.1660
vn 0.9931 0.0466 0.1078
vn 0.0023 -0.0040 -1.0000
vn 0.0634 0.0066 -0.9980
vn 0.0802 0.0123 -0.9967
vn 0.0340 0.1023 -0.9942
vn -0.9995 -0.0331 0.0004
vn -0.9992 -0.0394 0.0092
vn -0.9991 -0.0398 0.0108
vn -0.9985 0.0553 0.0057
vn 0.5526 -0.0282 -0.8330
vn -0.6242 -0.4560 0.6344
vn 0.6802 0.0340 -0.7323
vn -0.5543 -0.0282 -0.8318
vn 0.5909 -0.5392 0.6001
vn -0.6813 0.0340 -0.7312
vn -0.5541 -0.0282 0.8320
vn 0.6084 -0.4982 -0.6178
vn -0.6812 0.0340 0.7313
vn 0.5477 -0.0280 0.8362
vn -0.5632 -0.5940 -0.5744
vn 0.6765 0.0341 0.7357
vn 0.0000 0.8068 0.5909
vn 0.3700 0.8522 0.3700
vn 0.5909 0.8068 -0.0000
vn 0.3700 0.8522 -0.3700
vn 0.0013 0.8118 -0.5840
vn -0.0125 0.8242 -0.5661
vn 0.1086 0.7667 -0.6327
vn -0.0374 0.8136 0.5803
vn -0.0589 -0.9983 -0.0000
vn -0.0848 0.0272 0.9960
vn -0.0092 0.6496 0.7603
vn -0.0472 0.0152 -0.9988
vn -0.5968 -0.8024 -0.0000
vn -0.0517 0.1371 0.9892
vn 0.2149 0.5165 0.8289
vn -0.0411 0.1090 -0.9932
vn -1.0000 0.0028 -0.0000
vn 0.0015 0.0047 1.0000
vn -0.0023 0.0047 1.0000
vn 1.0000 -0.0030 0.0003
vn 1.0000 -0.0029 -0.0003
vn -0.0098 0.0309 -0.9995
vn 0.0152 0.0309 -0.9994
vn -0.8733 0.4871 -0.0000
vn 0.8743 0.4853 -0.0000
vn 0.0407 0.9992 -0.0000
vn -0.0045 0.7225 -0.6914
vn 0.1629 0.9866 -0.0000
vn 0.1211 0.7185 0.6849
vn 0.3428 0.5944 -0.7274
vn 0.6237 0.7816 -0.0000
# 128 vertex normals

vt 0.1116 0.0325 0.0000
vt 0.8884 0.0325 0.0000
vt 0.9675 0.1116 0.0000
vt 0.8884 0.9675 0.0000
vt 0.9675 0.8884 0.0000
vt 0.1116 0.9675 0.0000
vt 0.0325 0.8884 0.0000
vt 0.0325 0.1116 0.0000
vt 0.0548 0.5775 0.0000
vt 0.2503 0.0325 0.0000
vt 0.0421 0.8103 0.0000
vt 0.9675 0.2503 0.0000
vt 0.0514 0.8226 0.0000
vt 0.0795 0.5775 0.0000
vt 0.7497 0.9675 0.0000
vt 0.0399 0.8137 0.0000
vt 0.0499 0.5775 0.0000
vt 0.1082 0.9690 0.0000
vt 0.0236 0.8678 0.0000
vt 0.0029 0.5926 0.0000
vt 0.7199 0.3350 0.0000
vt 0.6902 0.6375 0.0000
vt 0.8690 0.8246 0.0000
vt 0.7704 0.8996 0.0000
vt 0.3790 0.9736 0.0000
vt 0.5077 0.9797 0.0000
vt 0.2299 0.4835 0.0000
vt 0.0566 0.8195 0.0000
vt 0.0806 0.8893 0.0000
vt 0.4272 0.7166 0.0000
vt 0.0325 0.0325 0.0000
vt 0.7497 0.0325 0.0000
vt 0.9675 0.0325 0.0000
vt 0.9675 0.9675 0.0000
vt 0.9675 0.7497 0.0000
vt 0.2503 0.9675 0.0000
vt 0.0325 0.9675 0.0000
vt 0.0325 0.2503 0.0000
vt 0.0325 0.7497 0.0000
vt 0.6558 0.9867 0.0000
vt 0.5804 0.5775 0.0000
vt 0.8223 0.8332 0.0000
vt 1.0000 0.5775 0.0000
vt 0.9900 0.7038 0.0000
vt 0.0100 0.7038 0.0000
vt 0.0000 0.5775 0.0000
vt 0.0098 0.7014 0.0000
vt 0.9639 0.5775 0.0000
vt 0.9659 0.8098 0.0000
vt 0.9902 0.7014 0.0000
vt 0.0096 0.6982 0.0000
vt 0.9904 0.6982 0.0000
vt 0.9597 0.7981 0.0000
vt 0.9506 0.5775 0.0000
vt 0.0107 0.7126 0.0000
vt 0.9502 0.5775 0.0000
vt 0.9893 0.7126 0.0000
vt 0.7524 0.9825 0.0000
vt 0.8502 0.9825 0.0000
vt 0.7820 0.9764 0.0000
vt 0.6399 0.9832 0.0000
vt 0.7341 0.9831 0.0000
vt 0.4575 0.9774 0.0000
vt 0.1158 0.3377 0.0000
vt 0.0919 0.6161 0.0000
vt 0.1610 0.3138 0.0000
vt 0.8088 0.7899 0.0000
vt 0.8862 0.7892 0.0000
vt 0.8863 0.6018 0.0000
vt 0.0570 0.8370 0.0000
vt 0.3175 1.0194 0.0000
vt 0.9774 0.8794 0.0000
vt 0.9813 0.8343 0.0000
vt 0.7243 0.9716 0.0000
vt 0.6880 0.9774 0.0000
vt 0.6719 0.9745 0.0000
vt 0.1047 0.9590 0.0000
vt 0.2573 0.9714 0.0000
vt 0.4982 0.9806 0.0000
vt 0.6365 0.9858 0.0000
vt 0.3600 0.2948 0.0000
vt 0.5335 0.7095 0.0000
vt 0.6246 0.9498 0.0000
vt 0.8626 0.4933 0.0000
vt 0.7625 0.7255 0.0000
vt 0.6604 0.9400 0.0000
vt 0.0519 0.9847 0.0000
vt 0.0727 0.9789 0.0000
vt 0.6903 0.5431 0.0000
vt 0.8577 0.4004 0.0000
vt 0.4293 1.0181 0.0000
vt 0.6056 1.0079 0.0000
vt 0.7402 0.9829 0.0000
vt 0.8181 0.9833 0.0000
vt 0.0325 0.7402 0.0000
vt 0.0325 0.1619 0.0000
vt 0.0325 0.1554 0.0000
vt 0.0325 0.1764 0.0000
vt 0.0325 0.7706 0.0000
vt 0.0325 0.7457 0.0000
# 100 texture coords

g Box01
usemtl wire_184155229
s 4
f 1/1/1 2/2/1 3/3/1 4/4/1 
f 3/3/1 5/5/1 4/4/1 
f 4/4/1 6/6/1 7/7/1 1/1/1 
f 8/8/1 1/1/1 7/7/1 
s off
f 9/9/2 10/10/2 10/10/2 11/11/2 
f 12/12/3 13/13/3 14/14/3 12/12/3 
f 15/15/4 16/16/4 17/17/4 15/15/4 
f 18/18/5 19/19/5 20/20/5 18/18/5 
f 21/21/6 22/10/6 23/10/6 24/22/6 
f 25/23/7 26/12/7 27/12/7 28/24/7 
f 29/25/8 30/15/8 31/15/8 32/26/8 
f 33/27/9 34/28/9 35/29/9 36/30/9 
f 37/31/10 38/10/10 39/32/10 40/33/10 
f 40/33/10 41/33/10 42/2/10 37/31/10 
f 42/2/10 43/1/10 44/31/10 37/31/10 
f 45/34/10 46/34/10 47/5/10 48/35/10 
f 49/12/10 48/35/10 47/5/10 41/33/10 
f 47/5/10 50/3/10 41/33/10 
f 40/33/10 49/12/10 41/33/10 
f 45/34/10 51/15/10 52/36/10 53/37/10 
f 53/37/10 54/37/10 55/6/10 45/34/10 
f 55/6/10 56/4/10 46/34/10 45/34/10 
f 37/31/10 44/31/10 57/8/10 58/38/10 
f 59/39/10 58/38/10 57/8/10 54/37/10 
f 57/8/10 60/7/10 54/37/10 
f 53/37/10 59/39/10 54/37/10 
f 43/1/11 42/2/11 61/2/11 62/1/11 
f 50/3/12 47/5/12 63/5/12 64/3/12 
f 56/4/13 55/6/13 65/6/13 66/4/13 
f 67/7/14 68/8/14 69/8/14 70/7/14 
f 38/10/10 37/31/10 58/38/10 
f 49/12/10 40/33/10 39/32/10 
f 51/15/10 45/34/10 48/35/10 
f 59/39/10 53/37/10 52/36/10 
f 71/40/15 71/40/15 72/41/15 73/42/15 
f 74/43/16 75/44/16 73/42/16 72/41/16 
f 9/9/17 11/11/17 75/45/17 74/46/17 
f 20/20/18 19/19/18 76/47/18 77/46/18 
f 78/40/19 78/40/19 79/48/19 80/49/19 
f 77/43/20 76/50/20 80/49/20 79/48/20 
f 17/17/21 16/16/21 81/51/21 82/46/21 
f 82/43/22 81/52/22 83/53/22 84/54/22 
f 14/14/23 13/13/23 85/55/23 86/46/23 
f 87/40/24 87/40/24 84/54/24 83/53/24 
f 88/56/25 86/43/25 85/57/25 89/40/25 
f 88/56/12 89/40/12 89/40/12 
f 30/15/26 25/23/26 28/24/26 31/15/26 
f 90/58/27 91/59/27 92/60/27 
f 35/29/28 34/28/28 29/25/28 32/26/28 
f 93/61/29 94/62/29 95/63/29 
f 22/10/30 33/27/30 36/30/30 23/10/30 
f 96/64/31 97/65/31 98/66/31 
f 27/12/32 26/12/32 21/21/32 24/22/32 
f 99/67/33 100/68/33 101/69/33 
f 74/46/34 72/41/34 71/40/34 10/10/34 
f 74/46/35 10/10/35 9/9/35 
f 12/12/36 14/14/36 86/46/36 89/40/36 
f 86/46/37 88/56/37 89/40/37 
f 15/15/38 17/17/38 82/46/38 87/40/38 
f 82/46/39 84/54/39 87/40/39 
f 18/18/40 20/20/40 77/46/40 78/40/40 
f 77/46/41 79/48/41 78/40/41 
f 71/40/42 18/18/42 78/40/42 89/40/42 
f 78/40/43 15/15/43 87/40/43 89/40/43 
f 87/40/44 12/12/44 89/40/44 
f 71/40/45 89/40/45 10/10/45 
f 75/45/46 11/11/46 97/65/46 73/70/46 
f 85/55/47 13/13/47 100/71/47 
f 76/50/48 19/72/48 94/62/48 80/49/48 
f 81/52/49 16/73/49 91/59/49 83/53/49 
f 15/15/50 102/15/50 92/74/50 
f 90/75/51 103/76/51 87/40/51 
f 18/18/52 104/77/52 95/78/52 
f 93/79/53 105/80/53 78/40/53 
f 10/10/54 106/10/54 98/81/54 
f 96/82/55 107/83/55 71/40/55 
f 12/12/56 108/12/56 101/84/56 
f 99/85/57 109/86/57 89/40/57 
f 94/87/58 19/19/58 18/18/58 95/88/58 
f 100/89/59 13/13/59 12/12/59 101/90/59 
f 91/91/60 16/16/60 15/15/60 92/92/60 
f 90/58/61 87/40/61 83/53/61 91/59/61 
f 93/61/62 78/40/62 80/49/62 94/62/62 
f 10/10/63 98/66/63 97/65/63 11/11/63 
f 96/93/64 71/40/64 73/42/64 97/94/64 
f 99/67/65 89/40/65 85/57/65 100/68/65 
f 43/1/10 57/8/10 44/31/10 
f 42/2/10 41/33/10 50/3/10 
f 47/5/10 46/34/10 56/4/10 
f 60/7/10 55/6/10 54/37/10 
f 57/8/66 43/1/66 62/1/66 110/8/66 
f 42/2/67 50/3/67 64/3/67 61/2/67 
f 47/5/68 56/4/68 66/4/68 63/5/68 
f 55/6/69 60/7/69 111/7/69 65/6/69 
f 39/32/70 38/10/70 22/10/70 21/21/70 
f 106/10/71 10/10/71 10/10/71 109/86/71 
f 10/10/72 89/40/72 89/40/72 109/86/72 
f 23/10/73 106/10/73 109/86/73 24/22/73 
f 48/35/74 49/12/74 26/12/74 25/23/74 
f 108/12/75 12/12/75 12/12/75 103/76/75 
f 12/12/76 87/40/76 87/40/76 103/76/76 
f 27/12/77 108/12/77 103/76/77 28/24/77 
f 52/36/78 51/15/78 30/15/78 29/25/78 
f 102/15/79 15/15/79 15/15/79 105/80/79 
f 15/15/80 78/40/80 78/40/80 105/80/80 
f 31/15/81 102/15/81 105/80/81 32/26/81 
f 58/38/82 59/39/82 34/28/82 33/27/82 
f 104/77/83 18/18/83 18/18/83 107/83/83 
f 18/18/84 71/40/84 71/40/84 107/83/84 
f 35/29/85 104/77/85 107/83/85 36/30/85 
f 51/15/86 48/35/86 25/23/86 30/15/86 
f 103/76/87 90/75/87 92/74/87 102/15/87 
f 103/76/88 102/15/88 31/15/88 28/24/88 
f 34/28/89 59/39/89 52/36/89 29/25/89 
f 105/80/90 93/79/90 95/78/90 104/77/90 
f 105/80/91 104/77/91 35/29/91 32/26/91 
f 38/10/92 58/38/92 33/27/92 22/10/92 
f 107/83/93 96/82/93 98/81/93 106/10/93 
f 107/83/94 106/10/94 23/10/94 36/30/94 
f 26/12/95 49/12/95 39/32/95 21/21/95 
f 109/86/96 99/85/96 101/84/96 108/12/96 
f 109/86/97 108/12/97 27/12/97 24/22/97 
f 62/1/98 61/2/98 2/2/98 1/1/98 
f 61/2/99 64/3/99 3/3/99 2/2/99 
f 64/3/100 63/5/100 5/5/100 3/3/100 
f 63/5/101 66/4/101 4/4/101 5/5/101 
f 66/4/102 65/6/102 6/6/102 4/4/102 
f 65/6/103 111/7/103 7/7/103 6/6/103 
f 111/7/104 112/95/104 7/7/104 
f 110/8/105 62/1/105 1/1/105 8/8/105 
f 60/7/106 57/8/106 113/8/106 114/7/106 
f 57/8/107 110/8/107 115/8/107 113/8/107 
f 116/96/108 117/97/108 115/8/108 110/8/108 
f 111/7/109 60/7/109 114/7/109 118/7/109 
f 114/7/110 113/8/110 119/8/110 120/7/110 
f 113/8/111 115/8/111 121/8/111 119/8/111 
f 117/97/112 122/98/112 121/8/112 115/8/112 
f 118/7/113 114/7/113 120/7/113 123/7/113 
f 120/7/114 119/8/114 124/8/114 125/7/114 
f 121/8/115 126/8/115 69/8/115 119/8/115 
f 69/8/116 68/8/116 124/8/116 119/8/116 
f 127/99/117 123/7/117 128/7/117 122/98/117 
f 122/98/118 128/7/118 126/8/118 121/8/118 
f 120/7/119 125/7/119 67/7/119 123/7/119 
f 67/7/120 70/7/120 128/7/120 123/7/120 
f 67/7/121 125/7/121 124/8/121 68/8/121 
f 69/8/122 126/8/122 128/7/122 70/7/122 
f 112/95/123 116/96/123 8/8/123 7/7/123 
f 111/7/124 118/7/124 129/100/124 112/95/124 
f 112/95/125 129/100/125 117/97/125 116/96/125 
f 116/96/126 110/8/126 8/8/126 
f 129/100/127 118/7/127 123/7/127 127/99/127 
f 129/100/128 127/99/128 122/98/128 117/97/128 
# 117 polygons - 36 triangles

